# xmcd CD database file
#
# Track frame offsets:
#	150
#	30117
#	68222
#	101832
#	142491
#	174905
#	203103
#	214320
#	240699
#	262690
#
# Disc length: 3755 seconds
#
# Revision: 0
# Processed by: cddbd v1.5.2PL0 Copyright (c) Steve Scherf et al.
# Submitted via: CDex 1.51
#
DISCID=8d0ea90a
DTITLE=Champion Jack Dupree - Live At Rockpalast - Cologne 1980  CD 2
DYEAR=2017
DGENRE=Blues
TTITLE0=Jack's Pinetop Boogie
TTITLE1=You Can Make It If You Try
TTITLE2=Baby, Don't Go
TTITLE3=Bad Luck
TTITLE4=Rockin' The Boogie
TTITLE5=Salt Pork, West Virginia
TTITLE6=Down By The Riverside
TTITLE7=The Saints
TTITLE8=Mean Old Frisco
TTITLE9=It's Now Or Never
EXTD=YEAR: 2017
EXTT0=
EXTT1=
EXTT2=
EXTT3=
EXTT4=
EXTT5=
EXTT6=
EXTT7=
EXTT8=
EXTT9=
PLAYORDER=
